<svg width="80" height="77" viewBox="0 0 80 77" fill="none" xmlns="http://www.w3.org/2000/svg">
<path d="M45.6898 46.1307C44.6502 47.1635 43.5226 48.1037 42.3198 48.9407L50.3198 56.9407L56.5098 50.7607L48.5098 42.7607C47.6666 43.9616 46.7232 45.089 45.6898 46.1307Z" stroke="#2C04BD" stroke-linecap="round" stroke-linejoin="round"/>
<path d="M45.6899 9.04038C42.0213 5.37278 37.3475 2.87533 32.2596 1.86383C27.1717 0.852335 21.8981 1.3722 17.1056 3.3577C12.3131 5.3432 8.21695 8.70518 5.33508 13.0185C2.45322 17.3319 0.915039 22.4029 0.915039 27.5904C0.915039 32.7779 2.45322 37.8489 5.33508 42.1622C8.21695 46.4755 12.3131 49.8375 17.1056 51.823C21.8981 53.8085 27.1717 54.3284 32.2596 53.3169C37.3475 52.3054 42.0213 49.8079 45.6899 46.1404C48.1251 43.708 50.057 40.8195 51.3751 37.64C52.6932 34.4604 53.3716 31.0523 53.3716 27.6104C53.3716 24.1684 52.6932 20.7603 51.3751 17.5808C50.057 14.4013 48.1251 11.5127 45.6899 9.08035V9.04038ZM41.0499 41.5004C38.2988 44.2509 34.794 46.124 30.9785 46.8827C27.1629 47.6414 23.2082 47.2516 19.6141 45.7628C16.0201 44.2739 12.9483 41.7527 10.787 38.5181C8.62583 35.2834 7.47229 31.4806 7.47229 27.5904C7.47229 23.7002 8.62583 19.8973 10.787 16.6627C12.9483 13.428 16.0201 10.9068 19.6141 9.41797C23.2082 7.92909 27.1629 7.53937 30.9785 8.29807C34.794 9.05676 38.2988 10.9298 41.0499 13.6804C42.8779 15.5063 44.3282 17.6746 45.3177 20.0614C46.3072 22.4482 46.8165 25.0066 46.8165 27.5904C46.8165 30.1741 46.3072 32.7325 45.3177 35.1193C44.3282 37.5061 42.8779 39.6745 41.0499 41.5004V41.5004Z" stroke="#2C04BD" stroke-linecap="round" stroke-linejoin="round"/>
<path d="M55.7641 51.5425L51.1325 56.1741C50.2773 57.0293 50.2773 58.416 51.1325 59.2712L66.5828 74.7215C67.4381 75.5768 68.8247 75.5768 69.68 74.7215L74.3115 70.09C75.1668 69.2347 75.1668 67.8481 74.3115 66.9928L58.8612 51.5425C58.006 50.6873 56.6193 50.6873 55.7641 51.5425Z" fill="#FD8871" stroke="#2C04BD" stroke-linecap="round" stroke-linejoin="round"/>
<path d="M71.1899 28.0605H72.1899" stroke="#2C04BD" stroke-linecap="round" stroke-linejoin="round"/>
<path d="M50.1899 28.0605H68.1899" stroke="#2C04BD" stroke-linecap="round" stroke-linejoin="round"/>
<path d="M58.1899 34.0605H56.1899" stroke="#2C04BD" stroke-linecap="round" stroke-linejoin="round"/>
<path d="M79.1899 34.0605H60.1899" stroke="#2C04BD" stroke-linecap="round" stroke-linejoin="round"/>
<path d="M34.23 19.0703L34.3601 18.5703C34.3833 18.4605 34.3843 18.3472 34.363 18.2371C34.3417 18.1269 34.2985 18.0221 34.2361 17.9289C34.1736 17.8357 34.0932 17.756 33.9994 17.6944C33.9056 17.6328 33.8004 17.5906 33.6901 17.5703H33.5301H23.3101C23.096 17.5721 22.8895 17.6492 22.7267 17.7882C22.5639 17.9272 22.4553 18.1192 22.42 18.3303L22.29 19.1503L21.86 21.9103C21.85 22.0034 21.85 22.0972 21.86 22.1903L21.7501 22.8503C21.7373 22.9311 21.7406 23.0136 21.7599 23.0931C21.7791 23.1726 21.8139 23.2476 21.8622 23.3136C21.9106 23.3796 21.9715 23.4353 22.0415 23.4777C22.1115 23.52 22.1892 23.5481 22.2701 23.5603H27.1L25.9701 30.6903C25.6501 32.6903 24.8701 33.5203 23.3101 33.5203C22.4464 33.5016 21.593 33.3289 20.79 33.0103L20.5801 32.9503H20.3301C20.1166 32.8842 19.8856 32.9049 19.6872 33.0078C19.4888 33.1108 19.339 33.2877 19.2701 33.5003C19.2662 33.5369 19.2662 33.5737 19.2701 33.6103L19.1901 34.1203C18.9601 35.6103 18.8401 36.3903 18.7701 36.8303L18.67 37.4803C18.6421 37.6709 18.6804 37.8653 18.7788 38.031C18.8771 38.1967 19.0294 38.3235 19.2101 38.3903L19.7601 38.5903C21.1134 39.0739 22.5432 39.3077 23.98 39.2803C29.05 39.2803 31.45 37.1403 32.29 31.8403L34.29 19.1803L34.23 19.0703Z" fill="#2C04BD"/>
</svg>
