<svg width="100" height="100" viewBox="0 0 100 100" fill="none" xmlns="http://www.w3.org/2000/svg">
<path d="M49.75 99.5C77.0881 99.5 99.25 77.3381 99.25 50C99.25 22.6619 77.0881 0.5 49.75 0.5C22.4119 0.5 0.25 22.6619 0.25 50C0.25 77.3381 22.4119 99.5 49.75 99.5Z" fill="white"/>
<path d="M39.1992 37.8896V60.5496C39.2374 61.1244 39.4927 61.663 39.9132 62.0566C40.3338 62.4501 40.8882 62.6691 41.4642 62.6691C42.0402 62.6691 42.5946 62.4501 43.0152 62.0566C43.4358 61.663 43.691 61.1244 43.7292 60.5496V62.0597C43.7086 62.3698 43.7519 62.6808 43.8564 62.9735C43.9609 63.2662 44.1244 63.5343 44.3367 63.7612C44.549 63.9881 44.8057 64.1691 45.0908 64.2927C45.376 64.4164 45.6834 64.4802 45.9942 64.4802C46.305 64.4802 46.6125 64.4164 46.8976 64.2927C47.1827 64.1691 47.4394 63.9881 47.6517 63.7612C47.8641 63.5343 48.0276 63.2662 48.1321 62.9735C48.2366 62.6808 48.2798 62.3698 48.2592 62.0597V63.5696C48.2592 64.1717 48.4984 64.7491 48.9241 65.1748C49.3498 65.6005 49.9272 65.8396 50.5292 65.8396C51.1313 65.8396 51.7086 65.6005 52.1343 65.1748C52.5601 64.7491 52.7992 64.1717 52.7992 63.5696V61.3196C52.8374 61.8944 53.0927 62.433 53.5132 62.8266C53.9338 63.2201 54.4882 63.4391 55.0642 63.4391C55.6402 63.4391 56.1946 63.2201 56.6152 62.8266C57.0358 62.433 57.291 61.8944 57.3292 61.3196V49.2296C57.3086 49.5397 57.3519 49.8508 57.4564 50.1435C57.5609 50.4362 57.7244 50.7043 57.9367 50.9312C58.149 51.1581 58.4057 51.3391 58.6908 51.4627C58.976 51.5864 59.2834 51.6502 59.5942 51.6502C59.905 51.6502 60.2125 51.5864 60.4976 51.4627C60.7827 51.3391 61.0394 51.1581 61.2517 50.9312C61.4641 50.7043 61.6276 50.4362 61.7321 50.1435C61.8366 49.8508 61.8798 49.5397 61.8592 49.2296V43.9996C61.8599 43.5048 61.7621 43.0148 61.5715 42.5581C61.381 42.1014 61.1014 41.6872 60.7492 41.3396L57.3292 37.9096" stroke="#2C04BD" stroke-linecap="round" stroke-linejoin="round"/>
<path d="M58.8792 5.43016L58.8492 27.3402L37.6992 27.3102L37.7292 5.41016" stroke="#2C04BD" stroke-linecap="round" stroke-linejoin="round"/>
<path d="M52.7695 61.3195L52.7795 53.7695" stroke="#2C04BD" stroke-linecap="round" stroke-linejoin="round"/>
<path d="M48.2305 62.0698L48.2405 53.7598" stroke="#2C04BD" stroke-linecap="round" stroke-linejoin="round"/>
<path d="M43.6992 60.5598L43.7092 53.7598" stroke="#2C04BD" stroke-linecap="round" stroke-linejoin="round"/>
<path d="M37.7522 27.3096H58.9022V33.3096C58.8995 33.711 58.7382 34.095 58.4535 34.3779C58.1687 34.6608 57.7836 34.8196 57.3822 34.8196H39.2522C38.8525 34.8169 38.47 34.657 38.1874 34.3744C37.9047 34.0918 37.7448 33.7092 37.7422 33.3096L37.7522 27.3096Z" fill="#FD8871" stroke="#2C04BD" stroke-linecap="round" stroke-linejoin="round"/>
<path d="M70.28 57.7297L64.25 51.6797" stroke="#2C04BD" stroke-linecap="round" stroke-linejoin="round"/>
<path d="M49.2188 68.7002L49.9287 69.4102C50.6365 70.1194 51.5968 70.5187 52.5987 70.5202H57.4487" stroke="#2C04BD" stroke-linecap="round" stroke-linejoin="round"/>
<path d="M79.3216 94.5904L63.8516 79.0804L78.8216 64.1504L94.2916 79.6604" stroke="#2C04BD" stroke-linecap="round" stroke-linejoin="round"/>
<path d="M78.82 64.1505L63.82 79.0805L59.55 74.8105C59.4091 74.6702 59.2973 74.5034 59.221 74.3198C59.1447 74.1362 59.1055 73.9393 59.1055 73.7405C59.1055 73.5416 59.1447 73.3447 59.221 73.1611C59.2973 72.9775 59.4091 72.8108 59.55 72.6705L72.39 59.8705C72.5295 59.7299 72.6954 59.6183 72.8781 59.5421C73.0609 59.466 73.257 59.4268 73.455 59.4268C73.653 59.4268 73.8491 59.466 74.0319 59.5421C74.2147 59.6183 74.3806 59.7299 74.52 59.8705L78.82 64.1505Z" fill="#FD8871" stroke="#2C04BD" stroke-linecap="round" stroke-linejoin="round"/>
<path d="M42.0195 70.5103L45.2595 67.2803" stroke="#2C04BD" stroke-linecap="round" stroke-linejoin="round"/>
<path d="M36.1687 45.9105C35.7963 45.8121 35.4049 45.8111 35.0319 45.9074C34.659 46.0037 34.317 46.1941 34.0388 46.4605L30.3288 50.1605C29.6268 50.873 29.2288 51.8303 29.2188 52.8305V57.6805" stroke="#2C04BD" stroke-linecap="round" stroke-linejoin="round"/>
<path d="M5.16016 79.5501L20.6602 64.0801L35.6002 79.0501L20.0902 94.5201" stroke="#2C04BD" stroke-linecap="round" stroke-linejoin="round"/>
<path d="M35.6002 79.0502L20.6602 64.0502L24.9402 59.7902C25.0805 59.6493 25.2472 59.5375 25.4308 59.4613C25.6144 59.385 25.8113 59.3457 26.0102 59.3457C26.209 59.3457 26.4059 59.385 26.5895 59.4613C26.7731 59.5375 26.9399 59.6493 27.0802 59.7902L39.8802 72.6302C40.0208 72.7697 40.1323 72.9356 40.2085 73.1184C40.2846 73.3012 40.3239 73.4972 40.3239 73.6952C40.3239 73.8933 40.2846 74.0893 40.2085 74.2721C40.1323 74.4549 40.0208 74.6208 39.8802 74.7602L35.6002 79.0502Z" fill="#FD8871" stroke="#2C04BD" stroke-linecap="round" stroke-linejoin="round"/>
<path d="M70.0508 20.7301L71.9808 20.0901C72.4676 19.9282 72.91 19.655 73.2729 19.2922C73.6357 18.9293 73.9089 18.4869 74.0708 18.0001L74.7508 16.0801L75.3508 18.0001C75.5117 18.4859 75.7834 18.9276 76.1444 19.2903C76.5054 19.653 76.9458 19.9268 77.4308 20.0901L79.3708 20.7301L77.4308 21.3801C76.9457 21.5402 76.5049 21.8118 76.1437 22.173C75.7825 22.5342 75.5109 22.975 75.3508 23.4601L74.7508 25.4001L74.1108 23.4601C73.9479 22.9765 73.6754 22.5371 73.3145 22.1763C72.9537 21.8155 72.5143 21.543 72.0308 21.3801L70.0508 20.7301Z" stroke="#2C04BD" stroke-linecap="round" stroke-linejoin="round"/>
<path d="M78.9688 30.7503L80.9088 30.1103C81.3955 29.9444 81.837 29.6673 82.198 29.301C82.5591 28.9348 82.8298 28.4894 82.9887 28.0003L83.6287 26.0703L84.2787 28.0003C84.4403 28.4846 84.7123 28.9247 85.0733 29.2857C85.4344 29.6467 85.8744 29.9188 86.3587 30.0803L88.2887 30.7203L86.3587 31.3703C85.8737 31.5305 85.4329 31.802 85.0717 32.1632C84.7105 32.5244 84.4389 32.9652 84.2787 33.4503L83.6287 35.3803L82.9887 33.4503C82.8272 32.966 82.5552 32.5259 82.1942 32.1649C81.8331 31.8039 81.3931 31.5319 80.9088 31.3703L78.9688 30.7503Z" stroke="#2C04BD" stroke-linecap="round" stroke-linejoin="round"/>
</svg>
