<svg width="115" height="22" fill="none" xmlns="http://www.w3.org/2000/svg"><g clip-path="url(#prefix__clip0)" fill="#2C04BD"><path d="M16.001 1.5l.088-.482A.862.862 0 0015.239 0H4.82a.863.863 0 00-.85.721L3.84 1.5l-.414 2.647c-.015.09-.03.172-.04.26l-.1.631a.605.605 0 00.597.695H8.78l-1.176 7.414c-.324 2.059-1.147 2.941-2.765 2.941-.794 0-1.647-.176-2.618-.529a2.32 2.32 0 00-.21-.068l-.266-.086a.865.865 0 00-1.118.688l-.082.525a296.51 296.51 0 00-.43 2.817l-.105.679a.864.864 0 00.557.941l.58.214.077.028c1.559.588 3.118.706 4.294.706 5.148 0 7.589-2.179 8.442-7.559l2.03-12.853A.563.563 0 0116 1.5zM65.319 5.957L64.66 5.6c-.834-.463-2.515-.836-3.794-.836-4.734 0-7.854 2.588-8.764 8.235-.114.72-.173 1.449-.177 2.178 0 4.383 2.589 6.823 7.236 6.823.799-.01 1.592-.138 2.353-.382l2.188-.7a.73.73 0 00.505-.764l-.335-3.584a.73.73 0 00-.97-.62l-1.388.49c-.502.148-1.073.354-1.62.354-1.088 0-1.588-.589-1.588-1.677 0-.471.058-1.03.177-1.706.411-2.559 1.235-3.5 2.5-3.5a3.962 3.962 0 011.735.412l.385.209a.863.863 0 001.198-.402l.3-.66.764-1.706.322-.679a.863.863 0 00-.368-1.13zM97.431 5.915a4.746 4.746 0 00-.349-.186c-1.085-.52-2.924-.964-4.941-.964-5.03 0-7.5 2.765-7.5 5.912 0 2.147 1.147 3.706 3.765 4.472l1.794.53c.617.176.853.41.853.764 0 .53-.471.823-1.736.823-1.558 0-2.706-.44-3.705-.852l-.746-.312a.86.86 0 00-1.161.555l-.153.522-.47 1.676a2.533 2.533 0 00-.033.127l-.189.732a.863.863 0 00.568 1.036l1.548.506c1.322.474 3.05.745 4.668.745 4.559 0 7.796-2.205 7.796-6.03 0-2.292-1.176-3.646-3.764-4.414l-1.588-.47c-.677-.206-1.06-.353-1.06-.794 0-.47.412-.794 1.677-.794 1.117 0 1.97.265 2.677.5l.74.286a.864.864 0 001.1-.446l.09-.197a3.17 3.17 0 00.129-.264l.588-1.353.331-.68a.86.86 0 00-.37-1.14l-.559-.29zM105.45 14.582l1.585.155c.851.054 1.705.01 2.546-.132 3.108-.543 5.077-2.024 5.077-4.84 0-3.235-2.589-5-6.65-5-4.942 0-8.03 2.647-8.912 8.235-.114.72-.173 1.449-.177 2.178 0 4.383 2.883 6.823 7.559 6.823 2.001 0 3.544-.35 4.742-.822l.019-.007.172-.07 1.181-.48a.868.868 0 00.537-.85l-.043-.775a6.412 6.412 0 00-.02-.349l-.115-1.5a2.416 2.416 0 00-.014-.16l-.028-.3a.862.862 0 00-1.17-.727l-.739.287c-.775.296-1.829.725-3.313.725-1.706 0-2.351-.558-2.351-1.882v-.402c0-.014.003-.029.009-.042a.106.106 0 01.062-.06.107.107 0 01.043-.005zm-.047-2.83c.559-2.559 1.886-2.835 2.431-2.835.812 0 1.261.447 1.261 1.261 0 1.392-1.365 1.654-2.392 1.73l-1.357.11.057-.267zM82.095 5.118H79.21a.863.863 0 00-.843.676l-.13.588c-.942-1.058-2.647-1.617-4.442-1.617-4 0-7.03 2.5-7.823 8.265-.115.764-.19 1.425-.25 2.128-.32 3.8 1.368 6.842 5.16 6.842 1.735 0 3.528-.882 4.293-1.941l-.099.58a.862.862 0 00.85 1.01h3.803a.863.863 0 00.853-.73l.124-.799 2.147-13.472.091-.516a.864.864 0 00-.849-1.014zM75.16 16.232l-.035.042c-.5.616-1.382.683-1.738.683-.71 0-1.554-.341-1.554-1.966 0-.63.082-1.114.185-1.73l.033-.194c.23-1.53.883-3.356 2.683-3.356.528 0 .986.167 1.29.47l.072.073-.936 5.978zM25.269 4.765c-5.294 0-8.118 2.588-9.03 8.235a13.02 13.02 0 00-.176 2.178c0 4.383 2.588 6.823 7.265 6.823 5.294 0 8.118-2.588 9.03-8.236.119-.72.178-1.448.176-2.178 0-4.38-2.589-6.822-7.265-6.822zm1.07 8.62c-.409 2.476-.995 4.012-2.655 4.012-1.092 0-1.622-.688-1.622-2.107 0-.524.064-1.147.197-1.909.407-2.476.994-4.013 2.653-4.013 1.09 0 1.623.688 1.623 2.108 0 .522-.064 1.146-.197 1.908zM45.33 4.765c-1.588 0-2.706.735-3.353 1.53l.734-4.707.107-.562A.862.862 0 0041.972 0h-4.64a.863.863 0 00-.853.73l-.12.77-2.941 18.618-.083.533a.864.864 0 00.853.996H37.1a.863.863 0 00.852-.73l.083-.534C38.976 21.442 40.682 22 42.477 22c4 0 7.029-2.5 7.823-8.264.107-.731.157-1.469.15-2.207 0-3.882-1.62-6.764-5.12-6.764zm-1.244 8.884c-.344 2.294-1.18 3.405-2.55 3.405-.529 0-.986-.167-1.29-.47l-.072-.073.936-5.978.035-.042c.409-.504.965-.78 1.567-.78.71 0 1.554.343 1.554 1.965a11.18 11.18 0 01-.18 1.973z"/></g><defs><clipPath id="prefix__clip0"><path fill="#fff" d="M0 0h114.658v22H0z"/></clipPath></defs></svg>