<svg width="80" height="81" viewBox="-5 -5 80 81" fill="none" xmlns="http://www.w3.org/2000/svg">
<path d="M32.5553 64.5918C50.1358 64.5918 64.3876 50.34 64.3876 32.7595C64.3876 15.179 50.1358 0.927124 32.5553 0.927124C14.9747 0.927124 0.7229 15.179 0.7229 32.7595C0.7229 50.34 14.9747 64.5918 32.5553 64.5918Z" fill="white" stroke="#2C04BD" stroke-miterlimit="10"/>
<path d="M32.555 41.8637C40.0913 41.8637 46.2006 35.7544 46.2006 28.2181C46.2006 20.6819 40.0913 14.5725 32.555 14.5725C25.0188 14.5725 18.9094 20.6819 18.9094 28.2181C18.9094 35.7544 25.0188 41.8637 32.555 41.8637Z" fill="#F4F5F5" stroke="#2C04BD" stroke-linecap="round" stroke-linejoin="round"/>
<path d="M32.6438 41.8639C22.9634 41.8639 14.745 47.9557 11.4666 56.4842C23.5172 67.2722 41.7704 67.2722 53.8211 56.4842C50.5426 47.9557 42.3242 41.8639 32.6438 41.8639Z" fill="#F4F5F5" stroke="#2C04BD" stroke-linecap="round" stroke-linejoin="round"/>
<path d="M55.3615 45.5083C55.5415 45.1249 56.0868 45.1249 56.2668 45.5083L59.7767 52.9862C59.8476 53.1371 59.989 53.2428 60.1538 53.268L68.0541 54.476C68.4566 54.5376 68.6207 55.0285 68.3362 55.3197L62.5918 61.1991C62.4809 61.3126 62.4304 61.472 62.4559 61.6286L63.8013 69.9127C63.8682 70.3244 63.4314 70.6321 63.0663 70.4307L56.0556 66.5634C55.9053 66.4805 55.723 66.4805 55.5726 66.5634L48.562 70.4307C48.1968 70.6321 47.7601 70.3244 47.827 69.9127L49.1724 61.6286C49.1978 61.472 49.1474 61.3126 49.0365 61.1991L43.2921 55.3197C43.0076 55.0285 43.1717 54.5376 43.5741 54.476L51.4745 53.268C51.6393 53.2428 51.7807 53.1371 51.8515 52.9862L55.3615 45.5083Z" fill="#FD8871" stroke="#2C04BD" stroke-linecap="round" stroke-linejoin="round"/>
</svg>
